<?xml version="1.0" standalone="no"?>
<!DOCTYPE svg PUBLIC "-//W3C//DTD SVG 20010904//EN"
 "http://www.w3.org/TR/2001/REC-SVG-20010904/DTD/svg10.dtd">
<svg version="1.0" xmlns="http://www.w3.org/2000/svg"
 width="549.000000pt" height="671.000000pt" viewBox="0 0 549.000000 671.000000"
 preserveAspectRatio="xMidYMid meet">

<g transform="translate(0.000000,671.000000) scale(0.100000,-0.100000)"
fill="#000000" stroke="none">
<path d="M0 3355 l0 -3355 2745 0 2745 0 0 3355 0 3355 -480 0 c-419 0 -479
-2 -474 -15 4 -9 -17 -40 -52 -81 -50 -57 -55 -66 -34 -61 62 15 389 57 520
66 226 17 286 15 310 -9 34 -34 24 -40 -67 -40 -147 0 -473 -35 -817 -87 -34
-5 -51 -20 -164 -150 -359 -412 -647 -799 -745 -1001 -47 -98 -53 -151 -19
-184 21 -21 31 -23 130 -22 81 1 130 7 202 26 258 69 608 226 817 367 121 80
293 231 293 256 0 7 -7 18 -16 26 -13 10 -39 11 -142 1 -233 -22 -396 -65
-560 -149 -102 -52 -125 -56 -137 -25 -8 23 30 52 131 102 174 85 353 129 565
137 152 6 202 -6 220 -55 19 -49 1 -83 -90 -172 -176 -173 -485 -351 -840
-482 -192 -70 -314 -98 -436 -99 -143 -1 -203 28 -225 112 -13 47 4 118 50
208 39 78 163 270 250 387 40 55 85 115 99 134 21 28 12 23 -44 -26 -162 -141
-247 -194 -311 -194 -39 0 -57 21 -58 66 -1 19 -2 34 -2 34 -1 0 -37 -18 -80
-39 -127 -64 -207 -73 -253 -29 -12 10 -21 28 -21 38 0 26 -6 25 -76 -6 -183
-81 -375 -84 -409 -6 -7 15 -15 20 -25 15 -108 -48 -156 -58 -285 -58 -112 0
-136 3 -177 22 l-47 22 -59 -67 c-156 -179 -290 -352 -402 -519 -41 -62 -82
-112 -91 -113 -8 0 -23 6 -33 13 -17 12 -13 21 58 126 90 133 201 278 346 451
58 69 112 134 120 144 9 12 -4 7 -38 -14 -107 -66 -195 -86 -240 -54 -58 40
-44 113 45 247 76 113 118 162 298 346 82 85 140 148 128 140 -11 -7 -65 -45
-120 -83 -279 -198 -613 -411 -817 -525 -222 -123 -355 -163 -424 -127 -118
61 -33 224 276 534 171 172 457 422 482 422 9 0 24 -6 33 -12 15 -12 1 -27
-125 -133 -160 -135 -444 -415 -531 -521 -31 -39 -70 -98 -87 -130 -31 -62
-40 -131 -17 -140 38 -14 252 86 507 239 150 90 607 394 800 533 142 102 255
183 279 201 13 10 -238 12 -1181 13 l-1198 0 0 -3355z m1294 2199 c3 -8 5 -81
3 -162 l-2 -147 -37 -60 c-20 -33 -39 -74 -43 -92 -9 -44 11 -107 45 -147 l30
-34 0 -1092 1 -1093 -22 -23 -22 -24 22 -24 23 -25 0 -495 c-1 -273 -5 -495
-9 -494 -6 1 -326 210 -341 224 -2 1 5 28 17 59 20 52 21 76 21 353 l0 296
-52 53 -52 52 52 55 52 55 -2 1358 c-2 747 -6 1365 -11 1373 -14 28 64 47 199
49 102 1 123 -2 128 -15z m223 4 c-4 -11 -44 -66 -184 -254 l-22 -29 0 148 -1
147 106 0 c81 0 105 -3 101 -12z m2393 -29 c27 -44 55 -66 114 -90 l38 -15
-138 -47 c-77 -26 -142 -47 -146 -47 -5 0 -8 30 -8 67 0 62 3 73 36 120 45 66
69 69 104 12z m-1414 6 c16 -8 45 -17 64 -21 19 -3 45 -9 58 -14 l22 -10 0
-2376 c0 -2170 -1 -2376 -16 -2370 -9 3 -81 49 -160 102 l-144 97 0 2287 0
2286 63 16 c83 20 81 20 113 3z m482 1 c15 -8 44 -17 65 -21 l37 -7 0 -2283 0
-2283 -149 -101 c-82 -55 -154 -101 -160 -101 -8 0 -11 685 -11 2384 l0 2383
78 20 c98 25 107 26 140 9z m325 -2 c3 -4 -11 -41 -33 -83 -56 -112 -73 -180
-68 -265 8 -117 71 -211 178 -266 l40 -20 0 -411 0 -411 24 30 c14 15 93 80
175 143 l150 114 1 266 0 266 59 12 c33 6 105 26 160 44 l101 33 0 -1130 0
-1130 -22 -23 -21 -23 21 -23 22 -23 -2 -510 -3 -509 -155 -103 -155 -104 -3
1191 c-1 655 -4 1191 -7 1191 -2 0 -51 -36 -108 -79 -169 -130 -204 -181 -195
-287 l5 -54 -24 22 -23 21 0 -1063 c0 -967 2 -1068 17 -1108 14 -37 14 -45 2
-56 -16 -15 -329 -226 -335 -226 -2 0 -4 1024 -4 2275 l0 2275 38 1 c20 0 55
6 77 14 45 15 79 18 88 9z m-1115 -21 l112 -6 0 -2274 c0 -2162 -1 -2273 -17
-2264 -10 5 -232 153 -493 328 l-475 318 -3 509 -2 510 22 23 21 23 -21 23
-22 23 0 1087 c0 1060 0 1087 19 1078 10 -6 40 -15 67 -21 74 -17 137 2 191
57 l43 45 0 -1494 0 -1495 173 -115 172 -116 5 1859 5 1858 30 31 c18 19 35
28 45 24 8 -3 66 -9 128 -11z m2232 -760 c0 -344 1 -370 19 -399 l19 -31 -139
-104 c-76 -57 -138 -107 -139 -111 0 -5 61 -8 135 -8 145 0 148 -1 120 -50
-12 -21 -14 -126 -15 -645 l0 -619 52 -53 52 -53 -51 -52 -52 -53 -1 -296 c0
-279 1 -300 21 -354 11 -31 19 -58 17 -59 -55 -43 -348 -232 -353 -228 -3 3
-5 227 -5 496 l1 491 26 27 27 28 -27 28 -27 28 2 1128 3 1128 95 38 c52 20
120 49 150 63 30 14 58 26 63 26 4 1 7 -164 7 -366z m-3129 -4450 c27 -60 57
-114 66 -120 14 -11 11 -13 -26 -13 -23 0 -40 4 -37 9 3 4 0 22 -7 40 -11 29
-14 31 -63 31 -49 0 -51 -1 -61 -35 -8 -25 -8 -35 1 -39 6 -2 -1 -5 -15 -5
l-26 -1 26 53 c14 29 39 83 55 120 15 37 30 67 32 67 3 0 27 -48 55 -107z
m-381 77 c26 -26 25 -44 -2 -70 -14 -13 -17 -20 -8 -20 22 0 50 -31 50 -55 0
-43 -34 -60 -130 -63 l-88 -4 9 42 c5 23 8 75 6 116 l-4 74 74 0 c60 0 77 -4
93 -20z m814 7 c26 -19 18 -79 -12 -92 -12 -5 -21 -13 -20 -17 2 -4 25 -30 51
-58 46 -47 47 -50 24 -50 -17 0 -42 18 -78 55 -64 66 -89 71 -89 19 0 -19 5
-44 10 -55 10 -17 7 -19 -22 -19 l-33 0 0 115 0 115 76 0 c46 0 82 -5 93 -13z
m427 -8 c22 -22 18 -55 -10 -76 -13 -10 -13 -12 -2 -13 23 0 51 -31 51 -55 0
-43 -33 -59 -133 -63 -82 -4 -90 -3 -79 11 10 11 12 44 10 116 l-3 101 73 0
c59 0 76 -4 93 -21z m399 4 c0 -13 -3 -14 -12 -5 -7 7 -34 12 -60 12 l-48 0 0
-46 0 -46 45 4 c26 2 45 -1 45 -7 0 -6 -19 -9 -46 -7 l-45 4 3 -53 3 -54 48 2
c27 1 55 7 63 14 15 13 17 9 8 -15 -5 -13 -23 -16 -88 -16 l-81 0 0 115 0 115
83 0 c70 0 82 -2 82 -17z m391 -4 c31 -31 13 -88 -28 -89 -22 0 -15 -13 39
-67 49 -50 51 -53 27 -53 -19 0 -41 16 -78 55 -68 72 -84 72 -79 0 l3 -55 -33
0 c-30 0 -32 2 -22 21 7 12 10 59 8 115 l-3 94 73 0 c60 0 76 -4 93 -21z m399
0 c0 -19 -1 -19 -22 -5 -28 20 -82 21 -98 1 -21 -25 -2 -54 43 -65 69 -17 84
-27 89 -55 12 -59 -18 -85 -97 -85 -57 0 -75 8 -75 33 0 20 0 20 21 1 38 -35
128 -22 129 18 0 17 -44 46 -79 52 -50 8 -76 36 -66 73 11 46 23 53 91 53 58
0 64 -2 64 -21z m272 -29 l-4 -50 72 0 72 0 -4 50 c-3 48 -2 50 22 50 l25 0 0
-115 0 -115 -25 0 c-24 0 -25 2 -22 60 l4 60 -72 0 -72 0 4 -60 3 -60 -34 0
c-28 0 -31 2 -22 14 8 10 11 48 9 115 l-3 101 25 0 c24 0 25 -2 22 -50z m629
21 c24 -25 29 -37 29 -81 0 -28 -5 -60 -11 -72 -15 -27 -69 -48 -127 -48 -96
0 -147 67 -122 161 14 51 46 68 133 69 63 0 71 -3 98 -29z m411 12 c23 -21 23
-65 1 -85 -10 -9 -40 -18 -67 -22 -27 -3 -53 -11 -57 -18 -8 -13 -3 -63 7 -80
3 -4 -10 -8 -28 -8 l-33 0 3 115 3 115 76 0 c57 0 81 -4 95 -17z"/>
<path d="M1206 322 c-23 -45 -20 -52 19 -52 40 0 41 3 16 49 l-18 35 -17 -32z"/>
<path d="M790 345 c0 -44 1 -45 33 -45 39 0 52 8 61 36 9 30 -17 54 -60 54
-34 0 -34 0 -34 -45z"/>
<path d="M790 240 c0 -58 8 -64 65 -52 36 7 40 11 43 42 4 42 -17 60 -70 60
l-38 0 0 -50z"/>
<path d="M1602 343 c3 -44 5 -48 30 -51 38 -5 68 14 68 43 0 46 -10 55 -57 55
l-44 0 3 -47z"/>
<path d="M2030 345 c0 -44 1 -45 33 -45 51 0 72 25 56 68 -7 18 -16 22 -49 22
l-40 0 0 -45z"/>
<path d="M2030 234 l0 -57 47 7 c56 7 66 15 66 52 0 35 -27 54 -75 54 l-38 0
0 -56z"/>
<path d="M2820 341 c0 -49 1 -51 28 -51 44 0 64 20 60 60 -3 33 -5 35 -45 38
l-43 3 0 -50z"/>
<path d="M4084 382 c-35 -23 -47 -129 -19 -169 20 -28 76 -39 115 -23 52 22
64 136 19 181 -19 19 -92 26 -115 11z"/>
<path d="M4530 340 l0 -50 38 0 c45 0 62 14 62 50 0 36 -17 50 -62 50 l-38 0
0 -50z"/>
<path d="M2404 6597 c-188 -166 -455 -428 -546 -537 -112 -134 -203 -330 -154
-330 44 0 199 103 341 226 50 43 178 164 285 269 214 210 403 392 465 448 l40
36 -151 1 -152 0 -128 -113z"/>
<path d="M2876 6695 c18 -14 10 -23 -151 -182 -288 -283 -652 -669 -642 -679
8 -8 100 18 172 49 81 36 172 94 232 149 36 32 49 38 89 38 58 0 55 -11 -22
-73 -104 -85 -261 -160 -392 -188 -32 -7 -61 -16 -66 -20 -14 -12 68 -48 126
-55 100 -12 256 47 350 131 115 103 366 191 407 142 20 -25 -9 -44 -77 -51
-75 -7 -147 -35 -224 -89 -93 -64 -111 -108 -53 -127 72 -24 288 43 417 128
31 20 99 72 151 115 100 82 139 96 152 56 4 -12 3 -24 -2 -28 -121 -82 -280
-232 -267 -252 11 -19 79 -3 161 37 80 40 196 121 295 207 57 49 82 56 101 25
9 -13 -4 -31 -68 -100 -114 -121 -166 -210 -102 -176 79 42 370 303 622 558
l140 141 -50 -6 c-75 -11 -462 -89 -647 -132 -184 -42 -235 -46 -251 -21 -6 9
-8 20 -4 24 14 15 594 138 887 189 144 25 144 25 188 67 24 24 62 64 84 91
l40 47 -808 0 c-715 0 -806 -2 -788 -15z"/>
</g>
</svg>
